<?xml version="1.0" encoding="UTF-8"?>
<svg height="128px" viewBox="0 0 128 128" width="128px" xmlns="http://www.w3.org/2000/svg" xmlns:xlink="http://www.w3.org/1999/xlink">
    
    <path d="m 23.507812 18.898438 l 1.945313 16.953124 c 0.410156 3.546876 1.113281 7.082032 1.050781 10.652344 c -0.027344 1.789063 -0.320312 3.609375 -1.179687 5.171875 c -0.429688 0.785157 -1 1.492188 -1.707031 2.039063 c -0.707032 0.546875 -1.550782 0.925781 -2.4375 1.035156 c -1.25 0.152344 -2.5 -0.222656 -3.679688 -0.675781 c -1.175781 -0.449219 -2.335938 -0.988281 -3.582031 -1.171875 c -1.367188 -0.203125 -2.785157 0.035156 -4.039063 0.617187 c -1.25 0.582031 -2.335937 1.5 -3.164062 2.605469 c -1.652344 2.210938 -2.242188 5.09375 -2.042969 7.851562 c 0.152344 2.113282 0.773437 4.25 2.109375 5.898438 c 0.667969 0.824219 1.507812 1.515625 2.46875 1.964844 c 0.960938 0.449218 2.039062 0.652344 3.09375 0.53125 c 1.476562 -0.167969 2.800781 -0.9375 4.136719 -1.582032 c 0.667969 -0.324218 1.355469 -0.621093 2.074219 -0.800781 c 0.722656 -0.175781 1.484374 -0.230469 2.207031 -0.070312 c 0.78125 0.175781 1.5 0.597656 2.070312 1.15625 c 0.574219 0.5625 1.007813 1.257812 1.3125 1.996093 c 0.613281 1.480469 0.726563 3.113282 0.800781 4.714844 c 0.441407 9.582032 -0.285156 19.21875 -2.152343 28.628906 c 6.460937 2.402344 13.152343 4.175782 19.953125 5.285157 c 2.421875 0.394531 4.945312 0.695312 7.285156 -0.023438 c 1.171875 -0.363281 2.273438 -0.988281 3.109375 -1.886719 c 0.832031 -0.898437 1.378906 -2.082031 1.414063 -3.304687 c 0.019531 -0.792969 -0.167969 -1.578125 -0.464844 -2.308594 c -0.296875 -0.734375 -0.699219 -1.417969 -1.125 -2.085937 c -0.851563 -1.332032 -1.8125 -2.644532 -2.195313 -4.175782 c -0.378906 -1.492187 -0.167969 -3.105468 0.484375 -4.5 c 0.652344 -1.394531 1.722656 -2.570312 2.992188 -3.4375 c 2.539062 -1.738281 5.742187 -2.222656 8.816406 -2.167968 c 2.75 0.046875 5.578125 0.515625 7.90625 1.980468 c 1.164062 0.730469 2.1875 1.707032 2.898438 2.882813 c 0.707031 1.179687 1.097656 2.5625 1.023437 3.933594 c -0.105469 1.996093 -1.148437 3.796875 -1.984375 5.609375 c -0.417969 0.90625 -0.789062 1.84375 -0.96875 2.824218 c -0.179688 0.980469 -0.160156 2.019532 0.195312 2.953126 c 0.5 1.324218 1.632813 2.339843 2.910157 2.953124 c 1.28125 0.613282 2.699219 0.867188 4.109375 1.03125 c 8.546875 0.988282 17.421875 -1.183593 24.546875 -6.007812 l -2.867188 -18.113281 c -0.515625 -3.257813 -1.230469 -6.523438 -1.128906 -9.820313 c 0.050781 -1.648437 0.359375 -3.320312 1.152344 -4.769531 c 0.394531 -0.722656 0.910156 -1.382813 1.546875 -1.914063 c 0.632812 -0.527343 1.382812 -0.917968 2.191406 -1.097656 c 0.761719 -0.167968 1.5625 -0.144531 2.332031 -0.003906 s 1.511719 0.394531 2.242188 0.679688 c 1.457031 0.566406 2.890625 1.265624 4.441406 1.46875 c 1.433594 0.191406 2.917969 -0.066407 4.226563 -0.679688 c 1.308593 -0.613281 2.445312 -1.574219 3.308593 -2.734375 c 1.726563 -2.316406 2.3125 -5.363281 1.960938 -8.234375 c -0.285157 -2.339844 -1.195313 -4.644531 -2.816407 -6.359375 c -0.8125 -0.855469 -1.792968 -1.554687 -2.882812 -2.003906 s -2.285156 -0.648438 -3.460938 -0.535157 c -1.5625 0.152344 -3.011718 0.835938 -4.476562 1.398438 c -0.734375 0.28125 -1.480469 0.53125 -2.253906 0.671875 c -0.769532 0.140625 -1.570313 0.167969 -2.335938 -0.003906 c -1.160156 -0.257813 -2.195312 -0.964844 -2.945312 -1.882813 c -0.75 -0.921875 -1.226563 -2.046875 -1.476563 -3.207031 c -0.5 -2.324219 -0.121093 -4.734375 0.21875 -7.085937 c 1.132813 -7.882813 1.773438 -15.835938 1.910157 -23.800782 c -6.902344 -2.328125 -14.0625 -3.890625 -21.304688 -4.648437 c -2.097656 -0.222657 -4.269531 -0.367188 -6.273438 0.300781 c -1 0.332031 -1.941406 0.875 -2.667968 1.636719 c -0.730469 0.765625 -1.234375 1.753906 -1.335938 2.804687 c -0.074218 0.796875 0.082032 1.605469 0.367188 2.351563 c 0.28125 0.746093 0.695312 1.441406 1.140625 2.105469 c 0.886719 1.328124 1.9375 2.585937 2.480469 4.089843 c 0.578124 1.613281 0.519531 3.429688 -0.066407 5.039063 c -0.582031 1.613281 -1.671875 3.019531 -3.023437 4.078125 c -2.695313 2.113281 -6.289063 2.785156 -9.714844 2.632812 c -2.800781 -0.125 -5.664062 -0.800781 -7.90625 -2.488281 c -1.117188 -0.847656 -2.0625 -1.9375 -2.660156 -3.207031 c -0.601563 -1.269531 -0.847656 -2.714844 -0.621094 -4.097657 c 0.324219 -1.976562 1.550781 -3.667968 2.574219 -5.390624 c 0.511719 -0.863282 0.980469 -1.757813 1.269531 -2.71875 c 0.289062 -0.960938 0.386719 -1.992188 0.148438 -2.96875 c -0.242188 -0.980469 -0.820313 -1.863282 -1.574219 -2.535157 c -0.75 -0.671875 -1.675781 -1.140625 -2.640625 -1.425781 c -1.9375 -0.574219 -4.003906 -0.433594 -6.011719 -0.207031 c -7.308594 0.820312 -14.496094 2.714843 -21.257813 5.605469 z m 0 0" fill="#62a0ea"/>
</svg>
